<svg xmlns="http://www.w3.org/2000/svg" version="1.1" xmlns:xlink="http://www.w3.org/1999/xlink" xmlns:svgjs="http://svgjs.dev/svgjs" width="2000" height="1500" viewBox="0 0 2000 1500"><rect width="2000" height="1500" fill="#ffffff"></rect><g transform="matrix(0.75,0,0,0.75,250,281.25)"><svg viewBox="0 0 512 320" data-background-color="#ffffff" preserveAspectRatio="xMidYMid meet" height="1250" width="2000" xmlns="http://www.w3.org/2000/svg" xmlns:xlink="http://www.w3.org/1999/xlink"><g id="tight-bounds" transform="matrix(1,0,0,1,0,0)"><svg viewBox="0 0 512 320" height="320" width="512"><g><svg></svg></g><g><svg viewBox="0 0 512 320" height="320" width="512"><g><path d="M96 160c0-88.366 71.634-160 160-160 88.366 0 160 71.634 160 160 0 88.366-71.634 160-160 160-88.366 0-160-71.634-160-160zM256 308.741c82.147 0 148.741-66.593 148.741-148.741 0-82.147-66.593-148.741-148.741-148.741-82.147 0-148.741 66.593-148.741 148.741 0 82.147 66.593 148.741 148.741 148.741z" fill="#1261a5" fill-rule="nonzero" stroke="none" stroke-width="1" stroke-linecap="butt" stroke-linejoin="miter" stroke-miterlimit="10" stroke-dasharray="" stroke-dashoffset="0" font-family="none" font-weight="none" font-size="none" text-anchor="none" style="mix-blend-mode: normal" data-fill-palette-color="tertiary"></path></g><g transform="matrix(1,0,0,1,128,105.88927946313582)"><svg viewBox="0 0 255.99999999999997 108.22144107372836" height="108.22144107372836" width="255.99999999999997"><g><svg viewBox="0 0 492.59894482167806 208.24128000000002" height="108.22144107372836" width="255.99999999999997"><g transform="matrix(1,0,0,1,236.59894482167803,44.060183152039976)"><svg viewBox="0 0 256 120.12091369592007" height="120.12091369592007" width="256"><g id="textblocktransform"><svg viewBox="0 0 256 120.12091369592007" height="120.12091369592007" width="256" id="textblock"><g><svg viewBox="0 0 256 120.12091369592007" height="120.12091369592007" width="256"><g transform="matrix(1,0,0,1,0,0)"><svg width="256" viewBox="0.18695652173913047 -35.89545454545454 76.81381251966386 36.04545454545454" height="120.12091369592007" data-palette-color="#1261a5"><path d="M0.5-2.05L0.5-2.05Q-0.1-3.4 0.45-4.7L0.45-4.7 11.65-33.55Q12.05-34.5 12.9-35.1 13.75-35.7 14.8-35.75L14.8-35.75Q15.9-35.95 16.98-35.38 18.05-34.8 18.6-33.75L18.6-33.75 22.3-24.55 26.65-13.8 30.1-4.8Q30.65-3.45 30.08-2.13 29.5-0.8 28.13-0.25 26.75 0.3 25.4-0.28 24.05-0.85 23.5-2.15L23.5-2.15 20.6-8.75Q15-8.9 9.5-8.65L9.5-8.65 7.05-2.05Q6.45-0.75 5.1-0.18 3.75 0.4 2.4-0.18 1.05-0.75 0.5-2.05L0.5-2.05ZM12.4-15.8L12.4-15.8Q14.3-15.8 17.9-15.8L17.9-15.8 15.25-23 12.4-15.8ZM36.25 0.15L36.25 0.15Q34.8 0.15 33.75-0.83 32.7-1.8 32.65-3.25L32.65-3.25Q32.65-4.55 33.47-5.58 34.3-6.6 35.55-6.8L35.55-6.8Q35.6-15.5 35.5-28.85L35.5-28.85Q34.3-29.1 33.5-30.05 32.7-31 32.7-32.3L32.7-32.3Q32.7-33.75 33.75-34.75 34.8-35.75 36.25-35.75L36.25-35.75 41.9-35.7Q43.35-35.7 44.35-34.65 45.35-33.6 45.35-32.15L45.35-32.15Q45.35-30.9 44.52-29.95 43.7-29 42.45-28.75L42.45-28.75Q42.6-15.6 42.55-6.95L42.55-6.95Q43.8-6.75 44.62-5.8 45.45-4.85 45.5-3.6L45.5-3.6Q45.5-2.15 44.52-1.1 43.55-0.05 42.1 0L42.1 0 36.25 0.15ZM59.09-3.3L59.09-3.3Q59.09-4.55 59.07-6.73 59.05-8.9 59.05-10.15L59.05-10.15 59.05-13 54.05-21.3Q50.34-27.35 48.55-30.75L48.55-30.75Q47.84-32 48.24-33.38 48.64-34.75 49.92-35.45 51.2-36.15 52.57-35.75 53.95-35.35 54.64-34.05L54.64-34.05Q56.3-31.1 62.14-21.4L62.14-21.4 64.84-25.6 70.55-34.2Q71.3-35.4 72.69-35.75 74.09-36.1 75.32-35.33 76.55-34.55 76.89-33.15 77.25-31.75 76.44-30.5L76.44-30.5Q76.14-30 70.64-21.7L70.64-21.7Q67.69-17.25 66-14.25L66-14.25Q66.05-13.1 66.05-9.2 66.05-5.3 66.09-3.5L66.09-3.5Q66.14-2.05 65.14-1 64.14 0.05 62.7 0.1 61.24 0.15 60.2-0.85 59.14-1.85 59.09-3.3L59.09-3.3Z" opacity="1" transform="matrix(1,0,0,1,0,0)" fill="#1261a5" class="undefined-text-0" data-fill-palette-color="primary" id="text-0"></path></svg></g></svg></g></svg></g></svg></g><g><svg viewBox="0 0 208.24128000000002 208.24128000000002" height="208.24128000000002" width="208.24128000000002"><g><svg></svg></g><g id="icon-0"><svg viewBox="0 0 208.24128000000002 208.24128000000002" height="208.24128000000002" width="208.24128000000002"><g><rect width="189.345312" height="189.345312" x="9.447984000000005" y="9.447984000000005" fill="#04191e" data-fill-palette-color="accent"></rect><rect width="189.345312" height="189.345312" x="18.895968000000003" y="5.329070518200751e-15" fill="#04191e" opacity="0.5" data-fill-palette-color="accent"></rect></g><g transform="matrix(1,0,0,1,26.994240000000005,30.925635879131875)"><svg viewBox="0 0 154.2528 146.39000824173627" height="146.39000824173627" width="154.2528"><g><svg xmlns:x="http://ns.adobe.com/Extensibility/1.0/" xmlns:i="http://ns.adobe.com/AdobeIllustrator/10.0/" xmlns:graph="http://ns.adobe.com/Graphs/1.0/" xmlns="http://www.w3.org/2000/svg" xmlns:xlink="http://www.w3.org/1999/xlink" xmlns:a="http://ns.adobe.com/AdobeSVGViewerExtensions/3.0/" version="1.1" baseProfile="basic" x="0" y="0" viewBox="4.999999999999963 7 90.28198073584075 85.68" xml:space="preserve" height="146.39000824173627" width="154.2528" class="icon-n$-0" data-fill-palette-color="background" id="n$-0"><g fill="#ffffff" data-fill-palette-color="background"><g fill="#ffffff" data-fill-palette-color="background"><path fill-rule="evenodd" clip-rule="evenodd" d="M27.8 7c0.08 0 0.16 0 0.24 0 3.782 8.218 8.224 15.776 12 24 6.381-0.5 13.83 0.07 20.16-0.48C64.254 22.813 68.174 14.973 71.96 7c0.08 0 0.16 0 0.24 0 7.237 17.172 21.862 33.197 23.04 56.16 0.241 4.696-0.587 8.264-1.68 12.24-4.015 0.306-9.261-0.621-12.48 0.479 1.035 1.296 3.424 0.721 5.521 0.721 2.093 0 4.413 0 6.239 0-0.838 2.361-2.18 4.22-3.84 5.76-3.039-0.208-6.306-2.591-8.88-1.681 1.859 1.661 5.277 1.764 7.92 2.641-1.594 1.446-3.442 2.638-5.52 3.6-1.924-0.636-2.944-2.176-5.04-2.64-0.549 1.868 2.394 1.999 3.359 3.12-8.327 4.393-19.208 1.431-24-5.04-0.794-1.073-1.03-2.364-1.439-3.36-2.436 3.593-5.646 6.279-10.32 8.641-6.24 3.151-11.692 4.345-18.96 1.199 2.201-1.959 5.494-2.825 7.44-5.04-2.929-0.438-6.17 3.498-9.36 4.561-2.765-1.155-5.445-2.395-7.92-3.84 4.169-2.231 10.464-2.337 14.4-4.801-0.732-1.116-2.44-0.08-3.6 0.24-3.561 0.982-8.259 2.354-12 3.36-3.046-1.754-5.072-4.528-6.96-7.44 6.196-0.872 14.938 0.549 21.12-0.72-0.593-1.306-3.322-0.72-5.04-0.72-5.187 0-11.452 0-16.8 0-1.154-2.446-1.785-5.415-2.4-8.4 0-2.32 0-4.64 0-6.96C8.612 37.732 20.173 24.333 27.8 7zM15.08 35.32c5.439-3.361 12.757-4.843 21.36-5.04-2.758-7.242-5.683-14.318-9.12-20.88C23.27 18.07 18.997 26.517 15.08 35.32zM63.08 30.28c8.713 0.007 16.575 2.145 21.6 5.04-4.483-8.396-8.175-17.584-12.72-25.92C68.947 16.149 65.377 23.614 63.08 30.28zM32.36 61.96c4.751-0.141 4.103-16.594-0.72-15.12C27.843 48.001 28.048 62.088 32.36 61.96zM72.92 59.8c4.796-0.21 4.04-14.687-0.96-12.96C68.407 48.067 68.26 60.004 72.92 59.8zM55.64 78.04c2.686-5.315 5.897-10.104 8.641-15.36-5.681 0.16-12-0.319-17.28 0.24C50.132 67.708 52.521 73.24 55.64 78.04z" fill="#ffffff" data-fill-palette-color="background"></path><path fill-rule="evenodd" clip-rule="evenodd" d="M47 92.68c-3.04 0-6.08 0-9.12 0 5.233-1.309 9.748-3.471 13.681-6.479 0.828-0.634 3.181-3.151 3.6-3.12-0.026-0.002 2.421 2.446 2.64 2.64 3.234 2.859 6.17 4.809 10.32 6C61.367 92.327 53.867 92.188 47 92.68z" fill="#ffffff" data-fill-palette-color="background"></path></g></g></svg></g></svg></g></svg></g></svg></g></svg></g></svg></g></svg></g><defs></defs></svg><rect width="512" height="320" fill="none" stroke="none" visibility="hidden"></rect></g></svg></g></svg>